<svg xmlns="http://www.w3.org/2000/svg" viewBox="0 0 500 500"><defs><style>.cls-1{isolation:isolate;}.cls-2{fill:#017dc0;}.cls-3{fill:#00b5e8;}.cls-4{fill:#fff;mix-blend-mode:overlay;}.cls-5{fill:#1f1e21;opacity:0.5;}</style></defs><title>totar-web-logo</title><g class="cls-1"><g id="OBJECTS"><path class="cls-2" d="M467.92,80.55v48.84c0,.83,0,1.67-.07,2.51a49.47,49.47,0,0,1-13.39,31.17c-7.83,8.22-19.3,14.28-30.77,14.92l-.17,0c-.65.07-1.27.12-1.93.14-.83,0-1.67.07-2.51.07H253.3a25.21,25.21,0,0,0-25.23,25.21v216a48.84,48.84,0,0,0,48.84,48.84H228.07c-1.7,0-3.35-.1-5-.26a48.3,48.3,0,0,1-8.46-1.63,15,15,0,0,1-1.54-.46c-.14-.05-.25-.1-.39-.14-.58-.17-1.17-.38-1.75-.61s-1.23-.46-1.83-.72c-8.86-3.75-17.18-9.8-22.12-18.08-8-13.37-7.74-35.33-7.74-52.6V178.22c0-15.22,9.14-32.93,22.62-40.95,16.12-9.6,36-7.88,54-7.88H419.08a48.84,48.84,0,0,0,48.84-48.84Z"/><path class="cls-3" d="M374.57,203.43a48.82,48.82,0,0,0-48.83,48.83V419.51c0,.81,0,1.63-.07,2.42v.18a48.62,48.62,0,0,1-12.87,30.48,49.34,49.34,0,0,1-32.15,15.57l-1.7.11h-.53c-.26,0-.49,0-.75,0h-.76a48.84,48.84,0,0,1-48.84-48.84V394.25a25.2,25.2,0,0,0,24.42,25.19c-.28,0-.54,0-.82,0h1.63a1.72,1.72,0,0,1-.32,0,25.24,25.24,0,0,0,23.93-25.19v-142a48.82,48.82,0,0,1,48.83-48.83Z"/><path class="cls-4" d="M374.57,203.42a48.84,48.84,0,0,0-48.83,48.84V419.5c0,.81,0,1.63-.07,2.43v.18a48.6,48.6,0,0,1-12.88,30.48,49.28,49.28,0,0,1-32.14,15.57l-1.69.11h-.54l-.74,0h-.78c-1,0-2,0-2.93-.1.22,0,.42,0,.65,0a49,49,0,0,0,45-46.32v-.19c.06-.8.07-1.63.07-2.45V251A49.08,49.08,0,0,1,334,216.2a48.46,48.46,0,0,1,22.05-12.78Z"/><path class="cls-3" d="M467.93,79.86a48.83,48.83,0,0,1-48.84,49.51H393.86a25.26,25.26,0,0,0,25.21-23.93,1.72,1.72,0,0,1,0,.31v-1.61c0,.28,0,.54,0,.82a25.18,25.18,0,0,0-25.21-24.42H106.23a25.12,25.12,0,0,0-17.84,7.37c-4.54,4.54-6.83,11-7.46,17.26,0-.28,0-.54,0-.82v1.56A31.45,31.45,0,0,0,82.07,112a26.61,26.61,0,0,0,23.79,17.62,49.31,49.31,0,0,1,31.58,14.17,48.74,48.74,0,0,1,14.3,34.37V227a48.82,48.82,0,0,0-48.84-48.83H81c-.84,0-1.68,0-2.51-.07-23-.81-42.42-18.92-45.79-41.53-1-6.28-.54-12.91-.54-19.26V80.54a48.39,48.39,0,0,1,1.37-11.49c.1-.37.19-.74.28-1.11A48.83,48.83,0,0,1,81,31.7H417.74C444.67,31.7,467.56,52.94,467.93,79.86Z"/><path class="cls-4" d="M137.43,143.76a48.67,48.67,0,0,1,14.3,34.37V227a48.38,48.38,0,0,0-7.42-25.86v-23A48.67,48.67,0,0,0,130,143.76c-8.48-8.48-20-9.46-32-10.31-16.9-1.23-28.31-20.5-22.82-36.1a24.49,24.49,0,0,1,23.6-16.81h7.42A25.24,25.24,0,0,0,88.38,87.9c-4.52,4.55-6.82,11-7.45,17.27,0-.27,0-.53,0-.81v1.56A30.75,30.75,0,0,0,82.08,112a26.62,26.62,0,0,0,23.78,17.63A49.21,49.21,0,0,1,137.43,143.76Z"/><path class="cls-4" d="M467.93,79.87a48.83,48.83,0,0,1-48.84,49.51h-7.42a48.83,48.83,0,0,0,48.84-49.51c-.37-26.94-23.26-43-50.18-43H73.58a63.23,63.23,0,0,0-19.46,2.87,48.66,48.66,0,0,1,26.88-8H417.75C444.67,31.71,467.56,52.93,467.93,79.87Z"/><path class="cls-5" d="M242.38,454a48.6,48.6,0,0,0,34.54,14.31H254a48.07,48.07,0,0,1-11.65-8.61,48.77,48.77,0,0,1-14.31-34.54v-5.68A48.67,48.67,0,0,0,242.38,454Z"/><path class="cls-5" d="M467.92,80.56v5.67a48.84,48.84,0,0,1-48.83,48.83H255.84c-18,0-37.86-1.71-54,7.88-13.49,8-22.61,25.75-22.61,41v-5.67c0-15.23,9.12-32.93,22.61-41,16.12-9.59,36-7.89,54-7.89H419.09a48.84,48.84,0,0,0,48.83-48.82Z"/></g></g></svg>